<svg width="320" height="320" viewBox="0 0 320 320" fill="none" xmlns="http://www.w3.org/2000/svg">
  <rect width="320" height="320" rx="48" fill="url(#paint0_linear)"/>
  <circle cx="160" cy="114" r="58" fill="white" fill-opacity="0.12"/>
  <circle cx="160" cy="114" r="34" fill="white"/>
  <path d="M112 198C112 171.49 133.49 150 160 150C186.51 150 208 171.49 208 198V207C208 213.627 202.627 219 196 219H124C117.373 219 112 213.627 112 207V198Z" fill="white"/>
  <path d="M141 114C141 103.507 149.507 95 160 95C170.493 95 179 103.507 179 114C179 124.493 170.493 133 160 133C149.507 133 141 124.493 141 114Z" fill="url(#paint1_linear)"/>
  <path d="M88 250H232" stroke="white" stroke-opacity="0.25" stroke-width="8" stroke-linecap="round"/>
  <defs>
    <linearGradient id="paint0_linear" x1="35" y1="28" x2="283" y2="293" gradientUnits="userSpaceOnUse">
      <stop stop-color="#0F172A"/>
      <stop offset="0.52" stop-color="#1D4ED8"/>
      <stop offset="1" stop-color="#0EA5A4"/>
    </linearGradient>
    <linearGradient id="paint1_linear" x1="145" y1="98" x2="175" y2="130" gradientUnits="userSpaceOnUse">
      <stop stop-color="#0F172A"/>
      <stop offset="1" stop-color="#2563EB"/>
    </linearGradient>
  </defs>
</svg>
